<svg xmlns="http://www.w3.org/2000/svg" width="2417.077" height="1150.172" viewBox="0 0 2417.077 1150.172">
  <g id="Group_30" data-name="Group 30" transform="translate(-7176.388 -3292.323)">
    <g id="Group_21" data-name="Group 21" transform="translate(7164 3285.397)">
      <ellipse id="Ellipse_30" data-name="Ellipse 30" cx="12.651" cy="6.325" rx="12.651" ry="6.325" transform="translate(31.627 461.756)" fill="#c6e2e9"/>
      <ellipse id="Ellipse_31" data-name="Ellipse 31" cx="9.488" cy="6.325" rx="9.488" ry="6.325" transform="translate(56.929 461.756)" fill="#c6e2e9"/>
      <ellipse id="Ellipse_32" data-name="Ellipse 32" cx="9.488" cy="6.325" rx="9.488" ry="6.325" transform="translate(82.23 461.756)" fill="#c6e2e9"/>
      <g id="Group_20" data-name="Group 20">
        <ellipse id="Ellipse_26" data-name="Ellipse 26" cx="664.168" cy="56.929" rx="664.168" ry="56.929" transform="translate(721.928 1043.241)" fill="#3f3d56"/>
        <path id="Path_162" data-name="Path 162" d="M656.644,443.9s26.684,42.323,17.155,53.781,71.5,11.746,71.5,11.746-12.172-61.567-8.589-75.736Z" transform="translate(553.776 185.129)" fill="#ffb8b8"/>
        <path id="Path_163" data-name="Path 163" d="M656.644,443.9s26.684,42.323,17.155,53.781,71.5,11.746,71.5,11.746-12.172-61.567-8.589-75.736Z" transform="translate(553.776 185.129)" opacity="0.1"/>
        <circle id="Ellipse_27" data-name="Ellipse 27" cx="83.675" cy="83.675" r="83.675" transform="translate(1169.39 477.012)" fill="#9a4545"/>
        <path id="Path_164" data-name="Path 164" d="M701.494,453.5v49.6l49.6-10.335-4.133-35.135Z" transform="translate(748.375 560.728)" fill="#ffb8b8"/>
        <path id="Path_165" data-name="Path 165" d="M871.05,629l138.478,22.735-35.137,51.67s-97.141-33.069-121.943-33.069S871.05,629,871.05,629Z" transform="translate(754.499 393.493)" fill="#ffb8b8"/>
        <path id="Path_166" data-name="Path 166" d="M718.3,639.8S821.64,519.919,854.709,526.12s47.537,43.4,47.537,43.4l18.6,183.948s-66.138,6.2-66.138,0-12.4-138.478-12.4-138.478S745.167,829.944,693.5,687.333Z" transform="translate(593.092 283.492)" fill="#2f2e41"/>
        <path id="Path_167" data-name="Path 167" d="M624.5,658.1s2.067,103.341,64.072,109.542S818.78,726.3,818.78,726.3l111.609-53.469s132.277,70,171.547,51.4c0,0,41.337-43.4,14.468-55.8s-2.067,0-2.067,0L955.19,585.757s-31-8.267-84.74,14.468-126.077,33.069-126.077,33.069Z" transform="translate(519.481 345.798)" fill="#2f2e41"/>
        <circle id="Ellipse_28" data-name="Ellipse 28" cx="62.005" cy="62.005" r="62.005" transform="translate(1185.314 526.455)" fill="#ffb8b8"/>
        <path id="Path_168" data-name="Path 168" d="M826.011,558.508l-4.134,86.807s2.067,113.675-16.535,121.943c-9.4,4.175-28.294,12.566-45.76,21.743-13.1,6.861-25.4,14.137-32.263,20.4a23.115,23.115,0,0,0-4.65,5.4c-8.268,14.468-62.006,12.4-74.406,2.066s-4.134,12.4-14.468,16.535c-10,4.01-23.872-28.77-15.377-77.713.268-1.633.579-3.287.909-4.961,9.487-47.433-5.415-161.047-3.12-204.947a77.389,77.389,0,0,1,1.053-10c6.2-33.07,85.319-100.365,100.118-71.7,18.229,35.384,60.1,3.059,67.3-13.042,41.337-2.066,55.8,47.537,55.8,47.537Z" transform="translate(510.181 203.566)" fill="#3f3d56"/>
        <path id="Path_169" data-name="Path 169" d="M833.658,640s-33.068,12.4-43.4,10.334-20.668,6.2-20.668,18.6-12.4,41.337,6.2,43.4,95.074-2.067,111.608,4.134c0,0,74.406,2.066,68.206-28.936S918.4,658.6,918.4,658.6,833.658,654.468,833.658,640Z" transform="translate(669.947 405.229)" fill="#2f2e41"/>
        <path id="Path_170" data-name="Path 170" d="M937.191,649.4s4.134-12.4,10.334-12.4,55.8,8.267,62,6.2,78.54-6.2,66.139,28.936-53.738,39.271-53.738,39.271-74.405-8.268-84.739-6.2-47.538,0-41.336-10.334S941.325,665.936,937.191,649.4Z" transform="translate(808.234 402.03)" fill="#2f2e41"/>
        <path id="Path_171" data-name="Path 171" d="M851.814,500.516l11.338,46.773a2.935,2.935,0,0,1-.056,1.579L811.66,709.6a2.921,2.921,0,0,1-5.685-.56l-7.116-62.617a2.932,2.932,0,0,1,.125-1.235L846.2,500.3a2.921,2.921,0,0,1,5.617.217Z" transform="translate(705.476 254.04)" fill="#d0cde1"/>
        <path id="Path_172" data-name="Path 172" d="M774.866,329.775l10.469,40.13L739.969,516.47,729.5,471.1Z" transform="translate(778.252 428.733)" fill="#f2f2f2"/>
        <path id="Path_173" data-name="Path 173" d="M712.031,648.229c1.745,5.234,181.462-1.745,183.206-3.49a37.8,37.8,0,0,0,3.839-6.98c1.64-3.489,3.141-6.979,3.141-6.979l-6.98-56.5-177.972-6.317s-4.449,47.878-5.356,69.793A52.261,52.261,0,0,0,712.031,648.229Z" transform="translate(612.515 328.384)" fill="#d0cde1"/>
        <path id="Path_174" data-name="Path 174" d="M757.252,403.22l3.489,48.856H682.225V403.22Z" transform="translate(727.818 507.086)" opacity="0.1"/>
        <path id="Path_175" data-name="Path 175" d="M692.979,410.866l.469-.093-2.214,21.032H647.612V410.866Z" transform="translate(690.892 515.145)" opacity="0.1"/>
        <path id="Path_176" data-name="Path 176" d="M712.031,612.2c1.745,5.235,181.462-1.744,183.207-3.489a37.886,37.886,0,0,0,3.838-6.979H711.909A52.29,52.29,0,0,0,712.031,612.2Z" transform="translate(612.515 364.407)" opacity="0.1"/>
        <path id="Path_177" data-name="Path 177" d="M716.285,333.5a45.737,45.737,0,0,1-26.392,18.143c-18.454,4.942-.15,32.674-.15,32.674s-6.657-10.084,2.944-20.764S717.738,345.57,716.285,333.5Z" transform="translate(580.456 78.247)" fill="#9a4545"/>
        <circle id="Ellipse_29" data-name="Ellipse 29" cx="23.319" cy="23.319" r="23.319" transform="translate(1243.61 445.898)" fill="#e86f12"/>
        <path id="Path_178" data-name="Path 178" d="M732.946,383.487c-19.01-7.191-50.664-10.837-66.948-8.344l2.234-16.309c15.655,8.092,47.164,11.894,66.949,8.344Z" transform="translate(563.755 105.274)" fill="#3f3d56"/>
        <path id="Path_179" data-name="Path 179" d="M734.256,373.587s-23.825,39.629-79.226,54.464-.453,98.087-.453,98.087S634.6,495.865,663.417,463.8,738.617,409.825,734.256,373.587Z" transform="translate(525.66 115.519)" fill="#e86f12"/>
        <path id="Path_180" data-name="Path 180" d="M681.811,372.422S704.7,426.854,729.826,432s23.222,91.154-16.073,104.052c0,0,28.654-50.421,4.161-84.237S677.952,391.267,681.811,372.422Z" transform="translate(579.997 119.77)" fill="#e86f12"/>
        <path id="Path_181" data-name="Path 181" d="M759.488,743.094c-5.1,9.652-11.1,19.676-12.112,23.727-.682,2.749-8.246,1.158-20.151-3.328-23.872-9.032-65.25-29.721-103.859-50.41a32.5,32.5,0,0,1-5.042-3.307c.268-1.632.579-3.286.909-4.961,9.486-47.434-5.415-161.047-3.121-204.947L633.7,494l35.136,33.069V667.613s90.941,49.6,97.141,53.738C769.141,723.458,764.78,733.069,759.488,743.094Z" transform="translate(510.276 172.552)" opacity="0.1"/>
        <path id="Path_182" data-name="Path 182" d="M734.3,560.4l55.8,28.936s33.069-35.136,53.737-8.268S783.9,616.2,783.9,616.2s-70.272-16.535-72.34-39.27S734.3,560.4,734.3,560.4Z" transform="translate(612.232 319.485)" fill="#ffb8b8"/>
        <path id="Path_183" data-name="Path 183" d="M684.268,609.537l33.069,8.267s37.2-45.47,76.473-28.936-49.6,49.6-49.6,49.6-47.537,24.8-66.139,4.134S684.268,609.537,684.268,609.537Z" transform="translate(569.251 346.818)" fill="#ffb8b8"/>
        <path id="Path_184" data-name="Path 184" d="M728.5,465c2.066,2.067,24.8,18.6,24.8,18.6s6.2,78.539-2.066,95.074-14.468,16.535-8.267,24.8,14.468,2.067,6.2,16.535-16.535,12.4-10.335,18.6,4.134,8.268,4.134,8.268l24.8,20.668S752.552,691.785,733.292,690s-35.8-94.791-35.8-94.791Z" transform="translate(597.359 218.534)" fill="#3f3d56"/>
        <path id="Path_185" data-name="Path 185" d="M644.312,489l-18.6,6.2s-49.6,181.881,8.268,212.883,121.943,62.005,124.01,53.738,24.8-41.337,18.6-45.47-97.141-53.738-97.141-53.738V522.069Z" transform="translate(499.666 167.218)" fill="#3f3d56"/>
        <path id="Path_186" data-name="Path 186" d="M569.127,354l-4.134,99.208,109.542,51.671L573.261,453.208Z" transform="translate(602.753 377.659)" opacity="0.1"/>
        <rect id="Rectangle_52" data-name="Rectangle 52" width="119.876" height="12.401" transform="translate(163.266 783.065)" fill="#c6e2e9" opacity="0.3"/>
        <rect id="Rectangle_53" data-name="Rectangle 53" width="113.396" height="12.401" transform="translate(163.266 809.935)" fill="#c6e2e9" opacity="0.3"/>
        <rect id="Rectangle_54" data-name="Rectangle 54" width="82.617" height="12.401" transform="translate(163.266 836.803)" fill="#c6e2e9" opacity="0.3"/>
        <g id="Group_15" data-name="Group 15" transform="translate(442.289 783.065)" opacity="0.3">
          <rect id="Rectangle_55" data-name="Rectangle 55" width="119.876" height="12.401" fill="#c6e2e9"/>
          <rect id="Rectangle_56" data-name="Rectangle 56" width="113.396" height="12.401" transform="translate(0 26.869)" fill="#c6e2e9"/>
          <rect id="Rectangle_57" data-name="Rectangle 57" width="82.617" height="12.401" transform="translate(0 53.738)" fill="#c6e2e9"/>
          <rect id="Rectangle_58" data-name="Rectangle 58" width="119.876" height="12.401" fill="#c6e2e9" opacity="0.3"/>
          <rect id="Rectangle_59" data-name="Rectangle 59" width="113.396" height="12.401" transform="translate(0 26.869)" fill="#c6e2e9" opacity="0.3"/>
          <rect id="Rectangle_60" data-name="Rectangle 60" width="82.617" height="12.401" transform="translate(0 53.738)" fill="#c6e2e9" opacity="0.3"/>
        </g>
        <rect id="Rectangle_61" data-name="Rectangle 61" width="119.876" height="12.401" transform="translate(731.645 783.065)" fill="#c6e2e9" opacity="0.3"/>
        <rect id="Rectangle_62" data-name="Rectangle 62" width="113.396" height="12.401" transform="translate(731.645 809.935)" fill="#c6e2e9" opacity="0.3"/>
        <rect id="Rectangle_63" data-name="Rectangle 63" width="82.617" height="12.401" transform="translate(731.645 836.803)" fill="#c6e2e9" opacity="0.3"/>
        <rect id="Rectangle_64" data-name="Rectangle 64" width="152.945" height="136.411" transform="translate(146.732 621.855)" fill="#c6e2e9" opacity="0.3"/>
        <rect id="Rectangle_65" data-name="Rectangle 65" width="152.945" height="136.411" transform="translate(425.755 621.855)" fill="#3f3d56"/>
        <rect id="Rectangle_66" data-name="Rectangle 66" width="152.945" height="136.411" transform="translate(715.111 621.855)" fill="#3f3d56"/>
        <path id="Path_189" data-name="Path 189" d="M305.4,573.965l-2.018-.04c.044-2.234,1.3-54.9,22.037-69.453l1.158,1.651C306.68,520.093,305.407,573.428,305.4,573.965Z" transform="translate(176.902 183.726)" fill="#c6e2e9"/>
        <circle id="Ellipse_33" data-name="Ellipse 33" cx="10.089" cy="10.089" r="10.089" transform="translate(502.898 667.351)" fill="#c6e2e9"/>
        <path id="Path_190" data-name="Path 190" d="M326.582,521.792a31.414,31.414,0,0,1-16.207.7,28.626,28.626,0,0,1,29.431-10.1A31.406,31.406,0,0,1,326.582,521.792Z" transform="translate(184.365 191.274)" fill="#c6e2e9"/>
        <path id="Path_191" data-name="Path 191" d="M445.4,573.965l-2.018-.04c.043-2.234,1.3-54.9,22.037-69.453l1.159,1.651C446.68,520.093,445.406,573.428,445.4,573.965Z" transform="translate(326.258 183.726)" fill="#c6e2e9"/>
        <circle id="Ellipse_34" data-name="Ellipse 34" cx="10.089" cy="10.089" r="10.089" transform="translate(792.254 667.351)" fill="#c6e2e9"/>
        <path id="Path_192" data-name="Path 192" d="M466.581,521.792a31.413,31.413,0,0,1-16.207.7,28.626,28.626,0,0,1,29.431-10.1A31.408,31.408,0,0,1,466.581,521.792Z" transform="translate(333.721 191.274)" fill="#c6e2e9"/>
        <path id="Path_193" data-name="Path 193" d="M1067.008,961.012H77V388.5h990.011ZM81.131,956.878h981.744V392.634H81.131Z" transform="translate(-64.609 60.003)" fill="#2f2e41"/>
        <rect id="Rectangle_67" data-name="Rectangle 67" width="985.878" height="4.134" transform="translate(14.455 489.972)" fill="#2f2e41"/>
      </g>
    </g>
    <path id="Path_198" data-name="Path 198" d="M0,217.543S367.793,274.906,580.782,87.652s441.828-40.77,518.959,124.961-45.4,363.73-237.545,353.277-493.607-122.855-628.628-203.4S0,217.543,0,217.543Z" transform="translate(8339.296 3713.782) rotate(-22)" fill="none" stroke="#707070" stroke-width="1"/>
    <text id="Thank_You_" data-name="Thank You!" transform="translate(9139.736 3793.421)" fill="#707070" font-size="108" font-family="OpenSans-Bold, Open Sans" font-weight="700"><tspan x="-300.454" y="0">Thank You!</tspan></text>
  </g>
</svg>
